<svg xmlns="http://www.w3.org/2000/svg" viewBox="0 0 801.61 531.53"><defs><style>.cls-1{fill:#fff;}</style></defs><title>logo-white</title><g id="Layer_2" data-name="Layer 2"><g id="Layer_1-2" data-name="Layer 1"><path class="cls-1" d="M726.17,140.52c3.37-.41,5.14-2.91,7.31-4.72,6.25-5.21,12.43-10.5,18.68-15.72a9.89,9.89,0,0,1,2.76-1.64c4.38-1.7,8.74.83,9,5.52s-.15,9.55.11,14.31a47.85,47.85,0,0,0,1.63,11.35,17.33,17.33,0,0,0,9.3,10.89,14.35,14.35,0,0,0,5.31,1.38c4.45.17,8.92,0,13.38,0a16.5,16.5,0,0,1,3.65,0,5.22,5.22,0,0,1,4.16,3.9c.54,2.11-.75,3.63-2.25,4.71a12.29,12.29,0,0,1-4.56,2.13,72.08,72.08,0,0,1-26.12.85c-8.78-1.44-17-12.3-17.51-19.93-.27-4.3-.6-8.59-.9-12.89a15.74,15.74,0,0,0-.2-2.76c-.45-1.64-1.61-2.29-3.16-1.43a20.56,20.56,0,0,0-3.38,2.41c-8,6.77-15.84,13.66-23.92,20.3a58.83,58.83,0,0,1-9.56,6.36c-4.85,2.61-7.29,1.81-10.49-2.73a9.76,9.76,0,0,0-.95-1c-4.51,2.65-8.85,5.53-13.47,7.83a37,37,0,0,1-24.2,3.25,8.43,8.43,0,0,1-4.67-3.47c-3.74-5.53-6.23-11.32-2.52-18.07a17.21,17.21,0,0,0,2.2-10.25c-.18-1.68,0-3.92-2-4.2a6.29,6.29,0,0,0-4.4,1.79c-3.8,3.56-7.49,7.28-11,11.15a67.06,67.06,0,0,0-9.58,13.48c-2.2,4.15-6.16,6.82-10.49,8.67-2.36,1-4.43.32-6.18-1.7-2.7-3.1-2.92-2.92-6.46-1A43.67,43.67,0,0,1,580,174.8a11.08,11.08,0,0,1-10.21-8c-.65-1.89-1.1-3.85-1.76-5.73-.84-2.42-2.16-2.73-4.11-1-2.53,2.23-4.86,4.73-7.55,6.74-3.68,2.76-7.51,5.35-12.09,6.55-6,1.55-8.75,0-10.14-6-1.15-4.89-1.48-9.72.74-14.48a14.45,14.45,0,0,0,.65-3.78l-.95-.67a13.1,13.1,0,0,0-3.14,2c-3.55,4-7.11,8.09-10.37,12.37-5.85,7.7-11.6,15.51-17.17,23.42a88,88,0,0,0-6,10.38c-5.08,9.83-10,19.72-15.07,29.56q-8.42,16.36-17,32.67a20.9,20.9,0,0,1-3,4.07,5.92,5.92,0,0,1-6.75,1.34c-2.22-1.23-2.29-3.53-1.62-5.29,1.79-4.71,4-9.28,6.16-13.85.72-1.51,2-2.75,2.73-4.26,3.31-6.76,6.5-13.58,9.75-20.38,2.7-5.66,5.6-11.24,8.1-17,2.88-6.6,5.44-13.35,8.07-20.07.5-1.27.54-2.72,1-4,.87-2.59,1.88-5.13,2.81-7.69.56-1.55,1.08-3.11,1.54-4.45-1.54-2-3.08-1.38-4.46-.78-2.39,1-4.64,2.5-7.09,3.33a40.35,40.35,0,0,1-9.75,2.42c-3.87.29-7.25-1.23-8.91-5.24a7.82,7.82,0,0,0-1.13-2c-1.28-1.55-2.73-1.93-4.33-.4-5,4.8-11.26,7.34-17.72,9.48-4.66,1.55-9.22,3.54-14,4.55-4.94,1-10.08,1.16-15.13,1.66-2.21.22-3.7-.72-5-2.55-2.12-2.93-2.31-2.85-5.67-1.24-4.38,2.09-7,.88-8.19-3.83-.37-1.49-.58-3-.8-4.54-.55-3.83-1.61-4.39-5.17-2.71a58.38,58.38,0,0,1-8,3.56A50.08,50.08,0,0,1,368.49,171c-5.14.32-7.57-1.88-8.74-6.91-.11-.45-.16-.91-.29-1.35-.88-3.1-1.89-3.48-4.52-1.65-4.16,2.9-8.17,6-12.46,8.7-8.31,5.17-14.64,1.65-14.66-8.23,0-3.48,1-7,1.5-10.44.18-1.19.32-2.39.53-4-1.25-.07-2.43-.49-3.18-.1-3,1.56-5.84,3.32-8.67,5.12-3.24,2.07-6.37,4.29-9.57,6.41-5.5,3.64-10.85,7.55-16.56,10.81a51.88,51.88,0,0,1-13.93,5.94c-2.76.61-6.27-1.1-9.12-2.45-1.56-.73-2.45-2.88-3.73-4.52a15.42,15.42,0,0,1,8.76-4.48,76.46,76.46,0,0,0,14.89-4.62c10.16-4.43,19.31-10.72,28.67-16.59,5.7-3.58,11.4-7.19,16.94-11a4.52,4.52,0,0,1,5.48-.16c2.1,1.2,1.92,3.16,1.5,4.89-.82,3.42-2.07,6.75-3,10.15a48.7,48.7,0,0,0-2,8.48c-.41,4.5,2.86,6.79,6.8,4.59A49.48,49.48,0,0,0,353.55,152c3.71-3.62,7.22-7.51,9.45-12.42a20.94,20.94,0,0,1,4.84-6.1c.78-.76,2.46-.87,3.7-.8a2.55,2.55,0,0,1,2.4,2.89,27.09,27.09,0,0,1-.75,5.46c-1,3.88-2.13,7.72-3.3,11.54-1.45,4.75.34,7.22,5.32,6.8a19.65,19.65,0,0,0,14.45-8.11c1.47-2,2.49-4.24,3.77-6.34,1-1.57,1.75-3.39,3.09-4.55,4.11-3.59,6-8.3,7.91-13.2,4.16-10.41,8.37-20.86,13.48-30.82,5.82-11.32,12-22.57,21.53-31.41a66.49,66.49,0,0,1,7.13-5.84,12.11,12.11,0,0,1,4.68-1.82c3.93-.68,6.85,1.51,6.92,5.42a62.38,62.38,0,0,1-3.23,20.38c-3.8,11.73-10.61,21.84-16.66,32.35-4.73,8.21-11.63,14.67-18.62,20.95-2.74,2.47-5.57,4.83-8.37,7.23A13.46,13.46,0,0,0,406,153.89c1.75,1.47,3.15.41,4.45-.72q3.84-3.33,7.57-6.78a94.35,94.35,0,0,1,20.53-14,16.6,16.6,0,0,1,6.61-1.63c3.65-.21,5.81,1.71,6.19,5.39.47,4.64.44,9.22-2.72,13.21a67.51,67.51,0,0,0-3.9,6.25c-.74,1.19-1.79,2.67-.37,3.65a4,4,0,0,0,3.71-.1,72.09,72.09,0,0,0,10.17-7.85c4.47-4.42,8.48-9.32,12.69-14a13.87,13.87,0,0,1,1.91-2c3-2.15,6.67-.56,6.5,3.1a50.81,50.81,0,0,1-2,9.89c-.5,1.93-1.56,3.71-2.06,5.63-.86,3.31.81,5.64,4.18,5.52a13.9,13.9,0,0,0,6.12-1.61A45.84,45.84,0,0,0,501.11,143,109.12,109.12,0,0,1,508,133.2c2.88-3.42,7.28-3.09,8.7.56a8.18,8.18,0,0,1,0,5.35c-2,5.32-4.4,10.49-6.6,15.74a71.34,71.34,0,0,0-2.62,6.87c-.3,1,0,2.22.11,3.71,3.38-1.15,4.36-3.79,5.74-5.82,4-5.89,8.24-11.47,13.66-16.14,2.67-2.3,4.94-5.07,7.65-7.3,7.12-5.84,15.67-8.35,24.53-10,2.86-.52,5.78-.8,8.69-1.07a5.32,5.32,0,0,1,5.39,2.74,20,20,0,0,0,4.45,4.54c2.84,2.27,4.56,4.92,4.22,8.7-.26,2.91-.46,5.83-.53,8.75a24.57,24.57,0,0,0,.32,5.49c1.06,5.36,3.54,7.48,9,6.87,7.41-.81,14.29-2.83,19.91-8.47a49.12,49.12,0,0,0,11-15.69,21.53,21.53,0,0,1,6.36-7.69c3.57-2.9,6.68-1.37,7.58,3.2.2,1,.47,2,.72,3.06,2.82.38,4.2-1.29,5.51-3,5.18-6.79,12.82-9.88,20.17-13.35a4,4,0,0,1,3.69.84,11.9,11.9,0,0,1,2.89,5.55,30.16,30.16,0,0,1-.75,12.79A69.68,69.68,0,0,0,665.17,153c-.56,6.29,1.71,8.63,8.09,8.14a29.35,29.35,0,0,0,11.47-3c7.68-4.17,15.19-8.81,21.33-15.18a49.33,49.33,0,0,0,5.58-7.78,35.36,35.36,0,0,0,2.42-5,13.83,13.83,0,0,1,6.72-6.71c3.49-1.78,6.18-.44,6.33,3.57a31.77,31.77,0,0,1-1,7.26C725.69,136.26,724.69,138.12,726.17,140.52ZM415.56,128.15a14.17,14.17,0,0,0,2.69-1.48c4.05-4.2,8.37-8.2,12-12.75,3.33-4.18,5.81-9,8.82-13.45a65.43,65.43,0,0,0,8.56-17.78,105,105,0,0,0,2.79-11.18,4.12,4.12,0,0,0-1.2-3.53c-.77-.48-2.66.06-3.6.76a40.94,40.94,0,0,0-11.76,14.57c-2.77,5.47-5.64,10.89-8.16,16.47-3.53,7.83-6.82,15.77-10.07,23.72C415.18,124.57,415.56,126,415.56,128.15Zm148,11c-5.06.26-9,.63-11.47,4.17s-4.46,7.33-6.58,11.07a3.21,3.21,0,0,0-.3,2.23c.3,1.11.69,2.6,1.53,3.05a3.71,3.71,0,0,0,3.31-.47c4-3.1,7.88-6.37,11.7-9.7a18.42,18.42,0,0,0,4-4.42,6.12,6.12,0,0,0,.68-4.62C566.1,139.56,564,139.33,563.6,139.19ZM413.85,166c4.95,1.43,8.42.3,11.26-2.25,4-3.59,7.74-7.45,11.45-11.34a8.53,8.53,0,0,0,1.77-3.68c.56-2.1-.7-3.36-2.77-2.87a6.34,6.34,0,0,0-2.47,1.17c-5.68,4.68-11.38,9.33-16.89,14.19C415.1,162.22,414.79,164.07,413.85,166Z"/><path class="cls-1" d="M441.9,345.81c-3.91,2.72-7.65,5.39-11.46,8-6.82,4.6-14,8.17-22.3,9.52-6.18,1-11.56-1-16.77-3.68-3-1.55-4.52-4.37-5.23-7.77-.87-4.18-2.24-4.44-5.54-1.9Q374,355,367.18,359.63a13.44,13.44,0,0,1-4.73,1.69c-6.1,1.25-10.23-1.9-10.65-8.19-.15-2.28.23-4.59.31-6.89s-1.06-3.16-3.2-2.27a13,13,0,0,0-3.91,2.41c-7.61,7.19-16.8,11.87-26.22,16-7,3.08-14.48,4.08-22,1.11-3.91-1.55-5.51-3.9-4.77-7.25a7.88,7.88,0,0,1,8.16-6.1,9.29,9.29,0,0,1,3.08.92c4.88,2.46,9.85,2.06,14.84.53,8.67-2.67,16-7.85,23.24-13,9.26-6.58,18.42-13.36,28.8-18.08,7.84-3.56,15.91-6.71,24.86-5.78,1.07.11,2.16.07,3.22.24,5,.81,7.37,4.24,5.7,9-1.93,5.47-2.72,11.31-5.87,16.44-2.34,3.83-.44,8.51,3.66,10.5a16.77,16.77,0,0,0,15.19,0A152.14,152.14,0,0,0,432,342a68.22,68.22,0,0,0,9.14-7c4-3.63,7.57-7.63,11.4-11.4,1.42-1.39,3.05-2.56,4.58-3.83,1.7-1.41,3.55-1.92,5.51-.66a4.45,4.45,0,0,1,1.82,5.31c-1.2,3.95-2.66,7.82-4.19,11.65-.56,1.41-1.72,2.56-2.4,3.93-.81,1.62-1,3.57.55,4.64a5.19,5.19,0,0,0,4.18.57,26.41,26.41,0,0,0,7.2-4c4.13-3.42,8-7.13,11.85-10.91,2.71-2.68,5.1-5.69,7.67-8.51a8.53,8.53,0,0,1,2.16-1.72A5,5,0,0,1,499,324.4a49.15,49.15,0,0,1-1,7.29c-1,6.59.73,11.42,5.48,13.36a33.54,33.54,0,0,0,10.2,2.72c8.45.54,16.94.75,25.06-2.55a12.66,12.66,0,0,1,4.51-.77c2.56-.06,4.38,1.27,4.83,3.42.55,2.6-1.42,3.59-3.25,4.35a106.78,106.78,0,0,1-24.35,6.87,54.15,54.15,0,0,1-20.61-1c-6.73-1.49-11.82-4.92-14.78-11.3-1.31-2.82-2.65-3.05-5.46-1-3.1,2.25-6.11,4.62-9.17,6.93-4.32,3.26-9.38,4.57-14.61,5.24-5.05.65-8.12-1.35-10.12-6.11C444.82,349.76,444.7,347.24,441.9,345.81Zm-52.54-16.28a2.51,2.51,0,0,0-3.21-2.76c-3,.55-5.85,1.66-8.78,2.48-7.91,2.22-11.72,8.45-14.75,15.31a4.09,4.09,0,0,0,.57,3.73,5.4,5.4,0,0,0,4.07,1,8.46,8.46,0,0,0,4-2.16c5.66-5.17,11.22-10.44,16.78-15.72A9.83,9.83,0,0,0,389.36,329.53Z"/><path class="cls-1" d="M43.38,184.52c.36.15,2.5.38,2.87,1.31a6.12,6.12,0,0,1-.68,4.62,18.22,18.22,0,0,1-4,4.42c-3.82,3.33-7.7,6.6-11.7,9.71a3.74,3.74,0,0,1-3.31.46c-.83-.45-1.23-1.93-1.53-3a3.24,3.24,0,0,1,.3-2.24c2.12-3.73,4.17-7.53,6.58-11.07S38.32,184.78,43.38,184.52Z"/><rect class="cls-1" x="57.04" y="347.45" width="387.06" height="35.62" rx="17.81" transform="translate(-192.08 381.53) rotate(-57.65)"/><rect class="cls-1" x="-32.54" y="261.32" width="326.18" height="35.62" rx="17.81" transform="translate(55.34 577.96) rotate(-140.81)"/><rect class="cls-1" width="156.67" height="35.62" rx="17.81" transform="translate(156.67 35.62) rotate(180)"/><rect class="cls-1" x="0.09" y="169.56" width="148.58" height="35.62" rx="17.81" transform="translate(148.75 374.73) rotate(180)"/><path class="cls-1" d="M135.53,0q33.21,0,57.93,6.37t41.11,20.91A82.86,82.86,0,0,1,257.33,59.6q7.17,18.48,7.18,43.08,0,25.13-7.59,43.8a81.32,81.32,0,0,1-22.35,31.41Q217.76,192.43,194,198.8t-58.44,6.37H32.83V169.63H137.58q24.81,0,39.16-3a82.76,82.76,0,0,0,26-10,51.06,51.06,0,0,0,20.09-21.45q6.76-13.56,6.77-32.58,0-19.22-6.67-32.67a51.14,51.14,0,0,0-20.19-21.54A82.85,82.85,0,0,0,176,38.5q-15.08-3-37.43-3H32.83V0Z"/></g></g></svg>